<?xml version="1.0" encoding="UTF-8"?>
<svg width="17px" height="17px" viewBox="0 0 17 17" version="1.1" xmlns="http://www.w3.org/2000/svg" xmlns:xlink="http://www.w3.org/1999/xlink">
    <!-- Generator: sketchtool 53.2 (72643) - https://sketchapp.com -->
    <title>17974ED6-5E4F-4B7D-B064-997DA76E696D</title>
    <desc>Created with sketchtool.</desc>
    <g id="Page-1" stroke="none" stroke-width="1" fill="none" fill-rule="evenodd">
        <g id="Game-Sunmag" transform="translate(-263.000000, -388.000000)" fill="#158EE3">
            <path d="M268.064342,396.5 C268.064342,396.861683 268.122298,397.212697 268.223243,397.538036 L266.747754,398.388106 L264.122221,397.686316 C263.648622,397.55997 263.160255,397.841761 263.030213,398.311757 C262.903872,398.785853 263.185651,399.270459 263.663151,399.396805 L265.786067,399.964765 L265.214667,402.076783 C265.087889,402.547218 265.370026,403.035326 265.843625,403.161871 C266.321125,403.288217 266.809253,403.006426 266.936031,402.532808 L267.637752,399.921297 L269.181786,399.035162 C269.583378,399.400388 270.071426,399.675491 270.610385,399.820307 L270.610385,401.809482 L268.686692,403.433073 C268.339155,403.791253 268.339155,404.369683 268.686692,404.731365 C269.033512,405.089545 269.597867,405.089545 269.945085,404.731365 L271.500025,403.125806 L273.054964,404.731365 C273.402183,405.089545 273.966139,405.089545 274.313357,404.731365 C274.660854,404.369683 274.660854,403.791253 274.313357,403.433073 L272.389545,401.809482 L272.389545,399.820267 C272.928584,399.675451 273.416632,399.400348 273.818184,399.035122 L275.362337,399.921257 L276.064098,402.532768 C276.190478,403.006347 276.678566,403.288177 277.156106,403.161831 C277.630023,403.035286 277.912161,402.547218 277.785502,402.076744 L277.213982,399.964726 L279.336978,399.396765 C279.814399,399.270419 280.096217,398.785814 279.969797,398.311717 C279.839754,397.841721 279.351427,397.55993 278.877789,397.686276 L276.251937,398.388066 L274.776647,397.537997 C274.877791,397.212657 274.935747,396.861643 274.935747,396.49996 C274.935747,396.138278 274.877791,395.787542 274.776647,395.458381 L276.251937,394.612133 L278.877789,395.313883 C279.351388,395.440349 279.839754,395.15812 279.969797,394.688084 C280.096217,394.214465 279.814399,393.729581 279.336978,393.603115 L277.213982,393.035195 L277.785502,390.923177 C277.912201,390.453021 277.630063,389.964953 277.156106,389.838208 C276.678566,389.711743 276.190478,389.993574 276.064098,390.46759 L275.362337,393.078624 L273.818184,393.964838 C273.416632,393.599652 272.928584,393.324828 272.389545,393.180011 L272.389545,391.552559 L274.313357,389.566966 C274.660854,389.208827 274.660854,388.630278 274.313357,388.268635 C273.966099,387.910455 273.402143,387.910455 273.054964,388.268635 L271.499985,389.874592 L269.945045,388.268675 C269.597787,387.910495 269.033472,387.910495 268.686652,388.268675 C268.339115,388.630278 268.339115,389.208866 268.686652,389.567006 L270.610345,391.552599 L270.610345,393.180051 C270.071386,393.324867 269.583378,393.599692 269.181746,393.964878 L267.637713,393.078664 L266.935992,390.46763 C266.809173,389.993613 266.321085,389.711783 265.843585,389.838248 C265.369986,389.965032 265.087889,390.453101 265.214627,390.923217 L265.786027,393.035235 L263.663111,393.603155 C263.185611,393.729621 262.903832,394.214505 263.030173,394.688124 C263.160215,395.1582 263.648582,395.440388 264.122181,395.313923 L266.747714,394.612173 L268.223203,395.458421 C268.122298,395.787582 268.064342,396.138317 268.064342,396.5 Z M271.499985,398.127452 C270.599398,398.127452 269.87264,397.400544 269.87264,396.5 C269.87264,395.599376 270.599398,394.872508 271.499985,394.872508 C272.400492,394.872508 273.12737,395.599376 273.12737,396.5 C273.12737,397.400544 272.400492,398.127452 271.499985,398.127452 Z" id="snow"></path>
        </g>
    </g>
</svg>