<?xml version="1.0" encoding="UTF-8"?>
<svg width="32px" height="32px" viewBox="0 0 32 32" version="1.1" xmlns="http://www.w3.org/2000/svg" xmlns:xlink="http://www.w3.org/1999/xlink">
    <!-- Generator: sketchtool 53.2 (72643) - https://sketchapp.com -->
    <title>FCD61B81-6D0C-44ED-B09F-CE7FE86E3FC0</title>
    <desc>Created with sketchtool.</desc>
    <g id="Page-1" stroke="none" stroke-width="1" fill="none" fill-rule="evenodd">
        <g id="Game-Sunmag" transform="translate(-484.000000, -309.000000)" fill-rule="nonzero">
            <g id="star" transform="translate(484.000000, 309.000000)">
                <path d="M5.91871982,4.85052128 L15.6100394,9.527742 C15.8297279,9.63376798 16.085787,9.63376798 16.3054755,9.527742 L25.9967951,4.85052128 C26.3947055,4.65848192 26.8729543,4.82537338 27.0649936,5.22328378 C27.1710196,5.44297228 27.1710196,5.69903132 27.0649936,5.91871982 L22.3877729,15.6100394 C22.2817469,15.8297279 22.2817469,16.085787 22.3877729,16.3054755 L27.0649936,25.9967951 C27.257033,26.3947055 27.0901415,26.8729543 26.6922311,27.0649936 C26.4725426,27.1710196 26.2164836,27.1710196 25.9967951,27.0649936 L16.3054755,22.3877729 C16.085787,22.2817469 15.8297279,22.2817469 15.6100394,22.3877729 L5.91871982,27.0649936 C5.52080941,27.257033 5.04256064,27.0901415 4.85052128,26.6922311 C4.74449531,26.4725426 4.74449531,26.2164836 4.85052128,25.9967951 L9.527742,16.3054755 C9.63376798,16.085787 9.63376798,15.8297279 9.527742,15.6100394 L4.85052128,5.91871982 C4.65848192,5.52080941 4.82537338,5.04256064 5.22328378,4.85052128 C5.44297228,4.74449531 5.69903132,4.74449531 5.91871982,4.85052128 Z" id="center-star-b" fill="#FFB900"></path>
                <path d="M5.91871982,4.85052128 L15.6100394,9.527742 C15.8297279,9.63376798 16.085787,9.63376798 16.3054755,9.527742 L25.9967951,4.85052128 C26.3947055,4.65848192 26.8729543,4.82537338 27.0649936,5.22328378 C27.1710196,5.44297228 27.1710196,5.69903132 27.0649936,5.91871982 L22.3877729,15.6100394 C22.2817469,15.8297279 22.2817469,16.085787 22.3877729,16.3054755 L27.0649936,25.9967951 C27.257033,26.3947055 27.0901415,26.8729543 26.6922311,27.0649936 C26.4725426,27.1710196 26.2164836,27.1710196 25.9967951,27.0649936 L16.3054755,22.3877729 C16.085787,22.2817469 15.8297279,22.2817469 15.6100394,22.3877729 L5.91871982,27.0649936 C5.52080941,27.257033 5.04256064,27.0901415 4.85052128,26.6922311 C4.74449531,26.4725426 4.74449531,26.2164836 4.85052128,25.9967951 L9.527742,16.3054755 C9.63376798,16.085787 9.63376798,15.8297279 9.527742,15.6100394 L4.85052128,5.91871982 C4.65848192,5.52080941 4.82537338,5.04256064 5.22328378,4.85052128 C5.44297228,4.74449531 5.69903132,4.74449531 5.91871982,4.85052128 Z" id="center-star-a" fill="#FFB900" transform="translate(15.957757, 15.957757) rotate(45.000000) translate(-15.957757, -15.957757) "></path>
                <circle id="Oval" stroke="#FFFFFF" stroke-width="2" cx="15.9577574" cy="15.9577574" r="5"></circle>
            </g>
        </g>
    </g>
</svg>